<?xml version="1.0" encoding="utf-8"?>
<!-- Generator: Adobe Illustrator 16.0.0, SVG Export Plug-In . SVG Version: 6.00 Build 0)  -->
<!DOCTYPE svg PUBLIC "-//W3C//DTD SVG 1.1//EN" "http://www.w3.org/Graphics/SVG/1.1/DTD/svg11.dtd">
<svg version="1.1" id="Layer_1" xmlns="http://www.w3.org/2000/svg" xmlns:xlink="http://www.w3.org/1999/xlink" x="0px" y="0px"
	 width="247.914px" height="29.57px" viewBox="31.707 38.68 247.914 29.57" enable-background="new 31.707 38.68 247.914 29.57"
	 xml:space="preserve">
<g>
	<path fill="#FFFFFF" d="M42.14,38.75h0.03c0.45,0,0.81,0.36,0.81,0.81v15.37c0,4.12-2.38,6.41-5.899,6.41
		c-2.63,0-4.391-1.609-5.181-2.55c-0.29-0.34-0.25-0.86,0.101-1.149l0,0c0.35-0.291,0.859-0.24,1.14,0.109
		c0.64,0.78,1.94,1.97,3.94,1.97c3.08,0,4.25-2.25,4.25-4.79V39.56C41.33,39.11,41.69,38.75,42.14,38.75z"/>
	<path fill="#FFFFFF" d="M48.05,55.72V47.23c0-0.41,0.33-0.75,0.75-0.75h0.16c0.41,0,0.75,0.33,0.75,0.75v8.229
		c0,2.979,1.68,4.25,4.09,4.25c3.2,0,4.47-3.17,4.47-3.17v-9.31c0-0.41,0.33-0.75,0.75-0.75h0.16c0.41,0,0.75,0.33,0.75,0.75V60.21
		c0,0.41-0.33,0.75-0.75,0.75l0,0c-0.41,0-0.75-0.33-0.75-0.75v-1.819c0,0-1.4,2.949-4.95,2.949
		C50.72,61.34,48.05,59.66,48.05,55.72z"/>
	<path fill="#FFFFFF" d="M65.98,47.24v1.92c0,0,1.65-3.051,5.391-3.051c4.029,0,7.17,3.11,7.17,7.61c0,4.511-3.141,7.61-7.17,7.61
		c-3.2,0-4.82-2.221-5.23-2.79v8.96c0,0.41-0.33,0.75-0.75,0.75h-0.16c-0.41,0-0.75-0.33-0.75-0.75V47.24
		c0-0.41,0.33-0.75,0.75-0.75l0,0C65.65,46.49,65.98,46.83,65.98,47.24z M66.14,56.359c0,0,1.55,3.36,5.2,3.36
		c3.24,0,5.49-2.63,5.49-6s-2.25-6-5.49-6c-3.65,0-5.2,3.36-5.2,3.36V56.359z"/>
	<path fill="#FFFFFF" d="M83.24,40.53c0.699,0,1.27,0.57,1.27,1.27c0,0.7-0.57,1.27-1.27,1.27c-0.7,0-1.271-0.57-1.271-1.27
		C81.97,41.1,82.54,40.53,83.24,40.53z M83.24,46.49L83.24,46.49c0.46,0,0.819,0.369,0.819,0.82V60.13c0,0.46-0.37,0.82-0.819,0.82
		l0,0c-0.461,0-0.82-0.37-0.82-0.82V47.32C82.41,46.859,82.78,46.49,83.24,46.49z"/>
	<path fill="#FFFFFF" d="M88.44,46.49h2.38v-3.88c0-0.43,0.351-0.78,0.78-0.78h0.09c0.431,0,0.78,0.35,0.78,0.78v3.88h2.36
		c0.42,0,0.76,0.34,0.76,0.76l0,0c0,0.42-0.34,0.76-0.76,0.76h-2.36v8.721c0,1.619,0.57,2.979,2.54,2.979
		c0.56,0,1.09-0.16,1.48-0.319c0.39-0.16,0.829,0.02,1.01,0.409l0,0c0.18,0.4,0,0.86-0.4,1.03c-0.54,0.24-1.34,0.5-2.149,0.5
		c-2.82,0-4.12-1.9-4.12-4.28v-9.04h-2.38c-0.421,0-0.761-0.34-0.761-0.76l0,0C87.68,46.83,88.02,46.49,88.44,46.49z"/>
	<path fill="#FFFFFF" d="M114.04,53.73c0,0.289,0,0.319-0.03,0.67h-12.47c0.13,2.189,1.939,5.33,5.77,5.33
		c1.87,0,3.4-0.871,4.42-1.891c0.311-0.311,0.811-0.3,1.12,0.02l0,0c0.3,0.311,0.3,0.811,0,1.11c-1.41,1.39-3.43,2.38-5.53,2.38
		c-4.31,0-7.42-3.49-7.42-7.609c0-4.09,2.82-7.61,7.141-7.61C110.87,46.109,114.04,49.28,114.04,53.73z M112.33,52.87
		c-0.061-1.65-1.49-5.14-5.301-5.14c-4.029,0-5.359,3.55-5.43,5.14H112.33z"/>
	<path fill="#FFFFFF" d="M125.04,47.38L125.04,47.38c-0.16,0.37-0.561,0.57-0.95,0.479c-0.311-0.069-0.74-0.129-1.29-0.129
		c-2.51,0-3.68,3.08-3.68,3.08v9.33c0,0.459-0.37,0.819-0.82,0.819l0,0c-0.46,0-0.82-0.37-0.82-0.819v-12.9
		c0-0.41,0.33-0.75,0.75-0.75l0,0c0.41,0,0.75,0.33,0.75,0.75v1.22c0,0,1.24-2.351,4.221-2.351c0.479,0,0.899,0.051,1.25,0.11
		C124.96,46.32,125.26,46.891,125.04,47.38z"/>
</g>
<path fill="#FFFFFF" d="M153.8,39.27c0.19-0.23,0.03-0.59-0.28-0.59h-3.35c-1.07,0-2.08,0.48-2.76,1.3l-4.931,5.98
	c-0.14,0.17-0.41,0.17-0.55,0L137,39.98c-0.681-0.83-1.69-1.3-2.76-1.3h-3.351c-0.3,0-0.47,0.35-0.28,0.59l8.511,10.33
	c0.109,0.131,0.109,0.32,0,0.461L130.61,60.38c-0.189,0.229-0.029,0.59,0.28,0.59h3.351c1.069,0,2.079-0.479,2.76-1.3L153.8,39.27z
	 M145.56,50.72l-2.67,3.24c-0.05,0.07-0.05,0.16,0,0.229l4.51,5.471c0.681,0.83,1.69,1.3,2.761,1.3h3.35c0.3,0,0.47-0.351,0.28-0.59
	l-7.96-9.65C145.76,50.63,145.63,50.63,145.56,50.72z"/>
<g>
	<path fill="#6C757D" d="M178.33,47.38h-3.87v10.681h-2.141V47.38h-3.84v-1.74h9.851V47.38L178.33,47.38z"/>
	<path fill="#6C757D" d="M188.96,52.51h-5.101v3.82h5.96v1.72H181.7V45.64h8.06v1.74h-5.9v3.431h5.101V52.51L188.96,52.51z"/>
	<path fill="#6C757D" d="M196.13,45.64l3.58,9.52l3.569-9.52h2.79v12.42h-2.149V53.97l0.21-5.479l-3.67,9.57h-1.54l-3.66-9.561
		l0.21,5.47v4.091h-2.15V45.64H196.13z"/>
	<path fill="#6C757D" d="M212.53,53.45v4.61h-2.159V45.64h4.75c1.39,0,2.489,0.36,3.31,1.08s1.22,1.681,1.22,2.87
		c0,1.221-0.399,2.17-1.199,2.84c-0.801,0.68-1.921,1.021-3.36,1.021H212.53z M212.53,51.71h2.591c0.77,0,1.35-0.18,1.76-0.54
		c0.399-0.359,0.609-0.88,0.609-1.57c0-0.67-0.199-1.209-0.609-1.609s-0.97-0.61-1.69-0.62h-2.649v4.34H212.53z"/>
	<path fill="#6C757D" d="M225.44,56.34h5.641v1.721h-7.801V45.64h2.16V56.34z"/>
	<path fill="#6C757D" d="M241.6,55.17h-4.81l-1.011,2.891h-2.239l4.689-12.42h1.94l4.7,12.42h-2.25L241.6,55.17z M237.39,53.43
		h3.601l-1.801-5.149L237.39,53.43z"/>
	<path fill="#6C757D" d="M255.97,47.38h-3.87v10.681h-2.14V47.38h-3.84v-1.74h9.85V47.38L255.97,47.38z"/>
	<path fill="#6C757D" d="M266.61,52.51h-5.1v3.82h5.96v1.72h-8.12V45.64h8.061v1.74h-5.9v3.431h5.1V52.51z"/>
	<path fill="#6C757D" d="M277.46,54.859c0-0.549-0.19-0.969-0.58-1.26c-0.38-0.3-1.08-0.59-2.08-0.899c-1-0.3-1.8-0.64-2.39-1.011
		c-1.131-0.709-1.7-1.64-1.7-2.779c0-1,0.41-1.83,1.22-2.471c0.82-0.649,1.88-0.97,3.18-0.97c0.86,0,1.63,0.16,2.311,0.48
		c0.68,0.319,1.21,0.77,1.6,1.36c0.391,0.59,0.58,1.239,0.58,1.959h-2.149c0-0.649-0.2-1.16-0.61-1.52
		c-0.41-0.37-0.99-0.55-1.74-0.55c-0.71,0-1.25,0.149-1.64,0.45c-0.391,0.3-0.58,0.72-0.58,1.26c0,0.46,0.21,0.83,0.63,1.14
		c0.42,0.3,1.11,0.601,2.08,0.89c0.97,0.291,1.74,0.61,2.33,0.98s1.02,0.79,1.29,1.26c0.27,0.471,0.41,1.03,0.41,1.67
		c0,1.041-0.4,1.86-1.19,2.471c-0.79,0.609-1.87,0.92-3.229,0.92c-0.9,0-1.721-0.17-2.48-0.5c-0.75-0.33-1.34-0.79-1.76-1.381
		c-0.42-0.59-0.63-1.27-0.63-2.049h2.159c0,0.709,0.23,1.25,0.7,1.64c0.471,0.39,1.13,0.579,2,0.579c0.75,0,1.32-0.149,1.69-0.459
		C277.27,55.76,277.46,55.359,277.46,54.859z"/>
</g>
</svg>
